<svg viewBox="0 0 512 512" xmlns="http://www.w3.org/2000/svg" width="512" height="512">
  <!-- White background -->
  <rect width="512" height="512" fill="#FFFFFF"/>
  <!-- Outer ring: orange, thick -->
  <path d="M256 80 C350 80, 432 160, 432 260 C432 360, 350 440, 256 440 C162 440, 80 360, 80 260 C80 160, 162 80, 256 80" fill="none" stroke="#F97316" stroke-width="40" stroke-linecap="round"/>
  <!-- Middle ring: purple -->
  <path d="M256 120 C320 120, 392 180, 392 260 C392 340, 320 400, 256 400 C192 400, 120 340, 120 260 C120 180, 192 120, 256 120" fill="none" stroke="#A855F7" stroke-width="20" stroke-linecap="round"/>
  <!-- Inner ring: orange, thin -->
  <path d="M256 160 C290 160, 352 200, 352 260 C352 320, 290 360, 256 360 C222 360, 160 320, 160 260 C160 200, 222 160, 256 160" fill="none" stroke="#F97316" stroke-width="10" stroke-linecap="round"/>
</svg>
